<svg width="390" height="499" viewBox="0 0 390 499" fill="none" xmlns="http://www.w3.org/2000/svg">
<path d="M45.0409 198.726C43.4179 183.928 55.0057 171 69.8918 171H190H310.108C324.994 171 336.582 183.928 334.959 198.726L306.443 458.726C305.053 471.402 294.344 481 281.592 481H98.408C85.6557 481 74.9473 471.402 73.557 458.726L45.0409 198.726Z" fill="white"/>
<path d="M312.137 171H270L260 481H281.588C294.121 481 304.888 472.099 307.246 459.79L307.397 459L337.42 197.5C338.295 183.93 328.078 172.187 314.517 171.177L312.137 171Z" fill="#FF616F"/>
<path d="M66.8626 171H109L119 481H97.4122C84.8792 481 74.112 472.099 71.7544 459.79L71.6031 459L41.5802 197.5C40.7049 183.93 50.9224 172.187 64.4831 171.177L66.8626 171Z" fill="#FF616F"/>
<path d="M150 171H227L217 481H162L150 171Z" fill="#FF616F"/>
<circle cx="88" cy="185" r="65" fill="#FFF6D1"/>
<circle cx="224" cy="158" r="65" fill="#FFF6D1"/>
<circle cx="125" cy="120" r="65" fill="#FFF6D1"/>
<circle cx="296" cy="178" r="72" fill="#FFF6D1"/>
<circle cx="190" cy="215" r="57" fill="#FFF6D1"/>
<circle cx="231" cy="93" r="65" fill="#FFF6D1"/>
<circle cx="292.5" cy="102.5" r="40.5" fill="#FFF6D1"/>
<circle cx="178" cy="64" r="45" fill="#FFF6D1"/>
<circle cx="167" cy="187" r="8" fill="#D7C198"/>
<circle cx="302" cy="185" r="6" fill="#D7C198"/>
<circle cx="117" cy="101" r="8" fill="#D7C198"/>
<circle cx="212" cy="118" r="15" fill="white"/>
<circle cx="73.5" cy="163.5" r="9.5" fill="white"/>
</svg>
