<svg width="500" height="500" viewBox="0 0 500 500" fill="none" xmlns="http://www.w3.org/2000/svg">
<rect width="500" height="500" fill="#2B2F54"/>
<path d="M99.0409 198.726C97.4179 183.928 109.006 171 123.892 171H244H364.108C378.994 171 390.582 183.928 388.959 198.726L360.443 458.726C359.053 471.402 348.344 481 335.592 481H152.408C139.656 481 128.947 471.402 127.557 458.726L99.0409 198.726Z" fill="white"/>
<path d="M366.137 171H324L314 481H335.588V481C348.121 481 358.888 472.099 361.246 459.79L361.397 459L391.42 197.5V197.5C392.295 183.93 382.078 172.187 368.517 171.177L366.137 171Z" fill="#FD4981"/>
<path d="M120.863 171H163L173 481H151.412V481C138.879 481 128.112 472.099 125.754 459.79L125.603 459L95.5802 197.5V197.5C94.7049 183.93 104.922 172.187 118.483 171.177L120.863 171Z" fill="#FD4981"/>
<path d="M204 171H281L271 481H216L204 171Z" fill="#FD4981"/>
<circle cx="142" cy="185" r="65" fill="#FFF6D1"/>
<circle cx="278" cy="158" r="65" fill="#FFF6D1"/>
<circle cx="179" cy="120" r="65" fill="#FFF6D1"/>
<circle cx="350" cy="178" r="72" fill="#FFF6D1"/>
<circle cx="244" cy="215" r="57" fill="#FFF6D1"/>
<circle cx="285" cy="93" r="65" fill="#FFF6D1"/>
<circle cx="346.5" cy="102.5" r="40.5" fill="#FFF6D1"/>
<circle cx="232" cy="64" r="45" fill="#FFF6D1"/>
<circle cx="221" cy="187" r="8" fill="#D7C198"/>
<circle cx="356" cy="185" r="6" fill="#D7C198"/>
<circle cx="171" cy="101" r="8" fill="#D7C198"/>
<circle cx="266" cy="118" r="15" fill="white"/>
<circle cx="127.5" cy="163.5" r="9.5" fill="white"/>
</svg>
